# xmcd
#
# Track frame offsets: 
#        183
#        13465
#        34530
#        51365
#        80120
#        84268
#        114130
#        160460
#        185483
#
# Disc length: 2760 seconds
#
# Revision: 1
# Processed by: cddbd v1.5.2PL0 Copyright (c) Steve Scherf et al.
# Submitted via: ExactAudioCopy v1.3
#
DISCID=6d0ac609
DTITLE=Captain Beefheart and his Magic Band - The New York Hot Dog Night
DTITLE=[CD2)
DYEAR=1978
DGENRE=Blues
TTITLE0=moonlight on vermont
TTITLE1=the floppy boot stomp
TTITLE2=you know you're a man
TTITLE3=bat chain puller
TTITLE4=apes-ma
TTITLE5=when i see mommy, i feel like a mummy
TTITLE6=veteran's day poppy
TTITLE7=safe as mik
TTITLE8=suction prints
EXTD=ID3G:   0 YEAR: 1978
EXTT0=
EXTT1=
EXTT2=
EXTT3=
EXTT4=
EXTT5=
EXTT6=
EXTT7=
EXTT8=
PLAYORDER=
